<?xml version="1.0" standalone="no"?>
<!DOCTYPE svg PUBLIC "-//W3C//DTD SVG 20010904//EN"
 "http://www.w3.org/TR/2001/REC-SVG-20010904/DTD/svg10.dtd">
<svg version="1.0" xmlns="http://www.w3.org/2000/svg"
 width="774.000000pt" height="774.000000pt" viewBox="0 0 774.000000 774.000000"
 preserveAspectRatio="xMidYMid meet">
<metadata>
Created by potrace 1.11, written by Peter Selinger 2001-2013
</metadata>
<g transform="translate(0.000000,774.000000) scale(0.100000,-0.100000)"
fill="#000000" stroke="none">
<path d="M2207 5944 c-1 -1 -58 -4 -128 -8 -69 -3 -135 -8 -146 -10 -12 -3
-43 -7 -70 -11 -236 -32 -506 -118 -721 -231 -84 -44 -263 -160 -319 -206 -52
-43 -230 -223 -275 -278 -101 -123 -225 -334 -288 -490 -12 -30 -26 -64 -31
-75 -10 -25 -68 -213 -75 -246 -14 -68 -25 -128 -30 -159 -3 -19 -7 -40 -9
-47 -27 -82 -27 -587 1 -750 3 -15 9 -55 15 -88 18 -105 78 -314 108 -380 5
-11 27 -58 49 -105 123 -265 316 -493 559 -663 275 -193 622 -310 1018 -345
153 -13 617 -5 711 12 10 2 44 7 74 10 30 4 78 11 105 16 28 5 64 12 82 15 29
5 134 27 188 40 70 17 219 65 228 74 10 10 15 1046 5 1056 -3 3 -40 -11 -83
-31 -155 -72 -374 -140 -510 -159 -125 -17 -188 -21 -298 -19 -147 2 -193 8
-317 40 -91 24 -243 89 -272 117 -7 7 -29 22 -48 34 -29 18 -120 104 -165 156
-71 83 -157 266 -180 382 -3 17 -8 41 -11 55 -13 65 -18 146 -17 265 6 468
229 804 628 944 45 16 99 32 119 35 21 4 41 8 45 10 39 23 453 24 541 1 8 -2
33 -6 55 -10 124 -18 316 -78 430 -134 44 -22 82 -38 84 -35 2 2 5 249 5 549
1 477 -1 546 -14 550 -85 24 -398 80 -505 91 -33 3 -67 7 -75 9 -30 8 -455 25
-463 19z"/>
<path d="M3880 3895 l0 -1985 598 0 598 0 -1 723 c0 397 1 730 3 740 4 16 45
17 687 17 l682 0 -1 -727 c-1 -401 0 -734 2 -740 3 -10 132 -13 601 -13 l596
0 -1 1982 0 1983 -594 3 c-350 1 -596 -2 -599 -7 -3 -5 -6 -336 -5 -735 l0
-726 -685 2 -685 3 0 733 0 732 -598 0 -598 0 0 -1985z"/>
</g>
</svg>
