<?xml version="1.0" standalone="no"?>
<!DOCTYPE svg PUBLIC "-//W3C//DTD SVG 20010904//EN"
 "http://www.w3.org/TR/2001/REC-SVG-20010904/DTD/svg10.dtd">
<svg version="1.0" xmlns="http://www.w3.org/2000/svg"
 width="916.000000pt" height="916.000000pt" viewBox="0 0 916.000000 916.000000"
 preserveAspectRatio="xMidYMid meet">
<metadata>
Created by potrace 1.11, written by Peter Selinger 2001-2013
</metadata>
<g transform="translate(0.000000,916.000000) scale(0.100000,-0.100000)"
fill="#000000" stroke="none">
<path d="M0 4580 l0 -4580 4580 0 4580 0 0 4580 0 4580 -4580 0 -4580 0 0
-4580z m3070 2470 c0 -6 33 -10 80 -10 64 0 80 -3 80 -15 0 -11 12 -15 50 -15
28 0 50 -4 50 -10 0 -5 20 -10 45 -10 25 0 45 -4 45 -10 0 -5 16 -10 35 -10
19 0 35 -4 35 -10 0 -5 11 -10 25 -10 14 0 25 -4 25 -10 0 -5 11 -10 25 -10
16 0 25 -6 25 -15 0 -8 9 -15 20 -15 11 0 20 -4 20 -10 0 -5 10 -10 23 -10 12
0 29 -9 37 -20 8 -11 24 -20 35 -20 11 0 27 -9 35 -20 8 -11 20 -20 27 -20 7
0 13 -7 13 -15 0 -9 9 -15 21 -15 12 0 34 -13 49 -30 15 -16 31 -30 35 -30 13
0 35 -29 35 -45 0 -16 22 -45 35 -45 14 0 35 -30 35 -49 0 -12 5 -21 10 -21 6
0 10 -9 10 -20 0 -11 7 -20 15 -20 8 0 15 -9 15 -20 0 -11 5 -20 10 -20 6 0
10 -11 10 -25 0 -16 6 -25 15 -25 11 0 15 -12 15 -45 0 -25 5 -45 10 -45 6 0
10 -18 10 -40 0 -22 5 -40 10 -40 6 0 10 -43 10 -110 0 -91 3 -110 15 -110 13
0 15 -25 15 -165 0 -103 4 -165 10 -165 6 0 10 -107 10 -300 l0 -300 -635 0
-635 0 0 505 c0 442 -2 505 -15 505 -11 0 -15 11 -15 41 0 39 -17 69 -39 69
-6 0 -11 5 -11 11 0 17 -27 39 -49 39 -12 0 -21 -4 -21 -10 0 -5 -9 -10 -20
-10 -11 0 -20 -7 -20 -15 0 -8 -7 -15 -15 -15 -8 0 -15 -9 -15 -20 0 -11 -4
-20 -10 -20 -6 0 -10 -32 -10 -75 0 -43 -4 -75 -10 -75 -7 0 -10 -402 -10
-1185 0 -783 3 -1185 10 -1185 6 0 10 -18 10 -41 0 -39 17 -69 39 -69 6 0 11
-7 11 -15 0 -8 9 -15 20 -15 11 0 20 -4 20 -10 0 -5 7 -10 15 -10 8 0 15 5 15
10 0 6 9 10 20 10 11 0 20 7 20 15 0 8 7 15 15 15 8 0 15 9 15 20 0 11 5 20
10 20 6 0 10 9 10 20 0 11 7 20 15 20 13 0 15 57 15 450 l0 450 635 0 635 0 0
-230 c0 -147 -4 -230 -10 -230 -6 0 -10 -65 -10 -175 0 -149 -2 -175 -15 -175
-12 0 -15 -16 -15 -85 0 -50 -4 -85 -10 -85 -5 0 -10 -20 -10 -45 0 -25 -4
-45 -10 -45 -5 0 -10 -20 -10 -45 0 -33 -4 -45 -15 -45 -8 0 -15 -9 -15 -20 0
-11 -4 -20 -10 -20 -5 0 -10 -11 -10 -25 0 -16 -6 -25 -15 -25 -8 0 -15 -9
-15 -20 0 -11 -4 -20 -10 -20 -5 0 -10 -9 -10 -21 0 -22 -22 -49 -39 -49 -6 0
-11 -8 -11 -18 0 -10 -9 -24 -20 -32 -11 -8 -20 -20 -20 -27 0 -7 -5 -13 -11
-13 -6 0 -24 -13 -39 -30 -15 -16 -33 -30 -39 -30 -6 0 -11 -4 -11 -10 0 -5
-11 -10 -25 -10 -14 0 -25 -5 -25 -10 0 -18 -48 -60 -67 -60 -10 0 -25 -9 -33
-20 -8 -11 -25 -20 -37 -20 -14 0 -23 -6 -23 -15 0 -9 -9 -15 -25 -15 -14 0
-25 -4 -25 -10 0 -5 -9 -10 -20 -10 -11 0 -20 -4 -20 -10 0 -5 -11 -10 -25
-10 -14 0 -25 -4 -25 -10 0 -5 -16 -10 -35 -10 -19 0 -35 -4 -35 -10 0 -5 -16
-10 -35 -10 -19 0 -35 -4 -35 -10 0 -5 -22 -10 -50 -10 -38 0 -50 -4 -50 -15
0 -12 -14 -15 -70 -15 -40 0 -70 -4 -70 -10 0 -6 -105 -10 -295 -10 -190 0
-295 4 -295 10 0 6 -30 10 -70 10 -56 0 -70 3 -70 15 0 12 -13 15 -60 15 -33
0 -60 4 -60 10 0 6 -16 10 -35 10 -19 0 -35 5 -35 10 0 6 -16 10 -35 10 -19 0
-35 5 -35 10 0 6 -16 10 -35 10 -19 0 -35 5 -35 10 0 6 -11 10 -25 10 -14 0
-25 5 -25 10 0 6 -11 10 -25 10 -14 0 -25 5 -25 11 0 17 -27 39 -47 39 -10 0
-25 9 -33 20 -8 11 -23 20 -33 20 -18 0 -47 22 -47 35 0 9 -27 35 -37 35 -5 0
-15 9 -23 20 -8 11 -18 20 -23 20 -12 0 -37 27 -37 39 0 6 -4 11 -10 11 -5 0
-10 9 -10 20 0 11 -5 20 -11 20 -17 0 -39 27 -39 49 0 12 -4 21 -10 21 -5 0
-10 9 -10 20 0 11 -7 20 -15 20 -10 0 -15 11 -15 35 0 19 -4 35 -10 35 -5 0
-10 14 -10 30 0 17 -4 30 -10 30 -5 0 -10 20 -10 45 0 33 -4 45 -15 45 -12 0
-15 13 -15 55 0 30 -4 55 -10 55 -6 0 -10 37 -10 90 0 73 -3 90 -15 90 -13 0
-15 133 -15 1140 0 1007 2 1140 15 1140 12 0 15 15 15 75 0 43 4 75 10 75 6 0
10 25 10 55 0 42 3 55 15 55 11 0 15 12 15 45 0 25 5 45 10 45 6 0 10 9 10 20
0 11 5 20 10 20 6 0 10 11 10 25 0 16 6 25 15 25 8 0 15 9 15 20 0 11 5 20 10
20 6 0 10 9 10 21 0 22 22 49 39 49 6 0 11 8 11 18 0 10 9 24 20 32 11 8 20
20 20 27 0 7 6 13 13 13 7 0 19 9 27 20 8 11 18 20 23 20 12 0 57 47 57 60 0
5 7 10 15 10 8 0 15 5 15 10 0 6 9 10 20 10 11 0 20 5 20 10 0 6 7 10 15 10 8
0 15 5 15 10 0 6 9 10 20 10 11 0 20 5 20 10 0 6 9 10 21 10 22 0 49 22 49 39
0 6 11 11 25 11 14 0 25 5 25 10 0 6 16 10 35 10 19 0 35 5 35 10 0 6 16 10
35 10 19 0 35 5 35 10 0 6 16 10 35 10 19 0 35 5 35 10 0 6 23 10 50 10 38 0
50 4 50 15 0 12 14 15 70 15 40 0 70 4 70 10 0 6 102 10 285 10 183 0 285 -4
285 -10z m2780 -795 l0 -735 95 0 95 0 0 735 0 735 635 0 635 0 0 -2095 0
-2095 -635 0 -635 0 0 865 0 865 -95 0 -95 0 0 -865 0 -865 -625 0 -625 0 0
2095 0 2095 625 0 625 0 0 -735z"/>
</g>
</svg>
